<svg width="16" height="16" viewBox="0 0 16 16" fill="none" xmlns="http://www.w3.org/2000/svg">
<path d="M8.00004 8.42666C7.76194 8.42758 7.53074 8.50668 7.34197 8.6518C7.1532 8.79692 7.01732 9.00002 6.95522 9.22988C6.89311 9.45974 6.90822 9.70363 6.99823 9.92407C7.08823 10.1445 7.24814 10.3293 7.45338 10.45V12H8.56004V10.45C8.72242 10.3539 8.85718 10.2175 8.95122 10.054C9.04526 9.89041 9.09538 9.70531 9.09671 9.51666C9.09671 9.37295 9.0683 9.23067 9.0131 9.09799C8.95791 8.9653 8.87702 8.84485 8.7751 8.74354C8.67318 8.64224 8.55223 8.56209 8.41921 8.50771C8.2862 8.45332 8.14374 8.42578 8.00004 8.42666Z" stroke="#969696" stroke-linecap="round" stroke-linejoin="round"/>
<path d="M12.0966 5.92334H3.89996C3.10467 5.92334 2.45996 6.56805 2.45996 7.36334V13.06C2.45996 13.8553 3.10467 14.5 3.89996 14.5H12.0966C12.8919 14.5 13.5366 13.8553 13.5366 13.06V7.36334C13.5366 6.56805 12.8919 5.92334 12.0966 5.92334Z" stroke="#969696" stroke-linecap="round" stroke-linejoin="round"/>
<path d="M4.44995 5.92333V5.05333C4.44995 4.11093 4.82432 3.20713 5.4907 2.54075C6.15708 1.87437 7.06088 1.5 8.00328 1.5C8.94569 1.5 9.84949 1.87437 10.5159 2.54075C11.1822 3.20713 11.5566 4.11093 11.5566 5.05333V5.92333" stroke="#969696" stroke-linecap="round" stroke-linejoin="round"/>
</svg>
