<svg width="200" height="200" viewBox="0 0 200 200" fill="none" xmlns="http://www.w3.org/2000/svg">
<path d="M100.02 194.42C146.171 194.42 183.584 172.82 183.584 146.176C183.584 119.531 146.171 97.9319 100.02 97.9319C53.8689 97.9319 16.456 119.531 16.456 146.176C16.456 172.82 53.8689 194.42 100.02 194.42Z" fill="#F5F5F5"/>
<path d="M53.728 171.296C63.7796 171.296 71.928 166.591 71.928 160.788C71.928 154.985 63.7796 150.28 53.728 150.28C43.6764 150.28 35.528 154.985 35.528 160.788C35.528 166.591 43.6764 171.296 53.728 171.296Z" fill="#EBEBEB"/>
<path d="M147.968 171.296C158.02 171.296 166.168 166.591 166.168 160.788C166.168 154.985 158.02 150.28 147.968 150.28C137.916 150.28 129.768 154.985 129.768 160.788C129.768 166.591 137.916 171.296 147.968 171.296Z" fill="#EBEBEB"/>
<path d="M100.792 177.508C112.204 177.508 121.456 172.166 121.456 165.576C121.456 158.986 112.204 153.644 100.792 153.644C89.3796 153.644 80.128 158.986 80.128 165.576C80.128 172.166 89.3796 177.508 100.792 177.508Z" fill="#EBEBEB"/>
<path d="M18.8 67.56C19.8184 69.5566 20.2247 71.8094 19.968 74.036C19.728 75.936 19.068 77.776 19.308 79.712C19.684 82.768 21.828 85.204 23.56 87.608C24.5664 88.897 25.3753 90.3287 25.96 91.856C26.592 93.736 26.44 95.692 26.088 97.612C25.424 101.26 24.488 104.688 26.532 108.076C27.66 109.94 29.184 111.52 30.244 113.428C31.3868 115.534 32.1019 117.845 32.348 120.228C32.372 120.444 32.788 120.516 32.768 120.272C32.6271 118.272 32.1328 116.312 31.308 114.484C30.472 112.636 29.256 111.084 28.056 109.468C26.856 107.852 25.812 106.068 25.704 103.96C25.604 101.992 26.104 100.052 26.504 98.14C26.848 96.384 27.104 94.572 26.732 92.8C26.377 91.3188 25.7474 89.9173 24.876 88.668C23.124 86.02 20.648 83.6 19.92 80.424C19.388 78.096 20.32 75.892 20.472 73.588C20.634 71.4534 20.1234 69.3216 19.012 67.492C18.928 67.356 18.72 67.388 18.804 67.56H18.8Z" fill="#37474F"/>
<path d="M18.272 70.9761C18.172 70.3401 19.224 68.3801 19.472 68.3441C19.72 68.3081 21.18 69.8321 21.288 70.5121C21.2954 70.6472 21.2671 70.7819 21.206 70.9027C21.145 71.0234 21.0532 71.126 20.94 71.2001C20.636 71.4197 20.2842 71.564 19.9135 71.621C19.5429 71.678 19.164 71.6462 18.808 71.5281C18.6767 71.4932 18.5572 71.4234 18.4622 71.3263C18.3672 71.2291 18.3001 71.1082 18.268 70.9761H18.272Z" fill="#FBD57D"/>
<path opacity="0.1" d="M18.272 70.9761C18.172 70.3401 19.224 68.3801 19.472 68.3441C19.72 68.3081 21.18 69.8321 21.288 70.5121C21.2954 70.6472 21.2671 70.7819 21.206 70.9027C21.145 71.0234 21.0532 71.126 20.94 71.2001C20.636 71.4197 20.2842 71.564 19.9135 71.621C19.5429 71.678 19.164 71.6462 18.808 71.5281C18.6767 71.4932 18.5572 71.4234 18.4622 71.3263C18.3672 71.2291 18.3001 71.1082 18.268 70.9761H18.272Z" fill="black"/>
<path d="M8.86399 58.2281C9.59999 63.1161 14.4 68.7001 19.6 69.0961C24.428 66.9121 27.324 60.3961 26.572 55.4961C25.82 50.5961 21.972 46.5281 16.272 47.4041C10.572 48.2801 8.11199 53.3401 8.86399 58.2281Z" fill="#FBD57D"/>
<path opacity="0.05" d="M26.576 58.124C26.576 58.124 26 63.016 20.232 64.28C14.696 65.504 9.20001 60.06 8.74801 55.968C8.70899 56.7233 8.74786 57.4807 8.86401 58.228C9.60001 63.116 14.4 68.7 19.6 69.096C23.6 67.288 26.272 62.504 26.644 58.136L26.576 58.124Z" fill="black"/>
<path d="M181.244 86.9241C180.341 88.1844 179.73 89.6301 179.456 91.1561C179.192 92.6721 179.456 94.1841 179.532 95.7041C179.652 97.7041 179.22 99.3801 177.892 100.904C176.84 102.104 175.568 103.104 174.616 104.4C172.704 107.004 172.272 109.916 172.664 113.064C173.108 116.628 173.936 119.98 172.22 123.364C171.3 125.18 170.084 126.836 169.44 128.788C168.865 130.688 168.618 132.673 168.712 134.656C168.712 134.876 169.132 134.944 169.136 134.7C169.103 132.808 169.347 130.922 169.86 129.1C170.384 127.428 171.328 125.96 172.184 124.444C173.052 123.018 173.598 121.419 173.784 119.76C173.862 118.268 173.762 116.772 173.484 115.304C173.22 113.596 172.9 111.864 172.984 110.132C173.088 108.413 173.633 106.749 174.564 105.3C176.204 102.696 179.388 101.096 179.936 97.8601C180.2 96.2921 179.864 94.7001 179.788 93.1321C179.684 90.9561 180.4 88.9721 181.452 87.1001C181.52 86.9841 181.324 86.7961 181.236 86.9201L181.244 86.9241Z" fill="#37474F"/>
<path d="M181.768 90.5001C181.904 89.8681 180.968 87.8481 180.732 87.7921C180.496 87.7361 178.932 89.1721 178.784 89.8441C178.767 89.9781 178.786 90.1141 178.839 90.2384C178.892 90.3627 178.976 90.4709 179.084 90.5521C179.375 90.7887 179.717 90.9539 180.083 91.0345C180.449 91.115 180.829 91.1088 181.192 91.0161C181.325 90.988 181.448 90.9255 181.549 90.835C181.65 90.7444 181.725 90.629 181.768 90.5001Z" fill="#FBD57D"/>
<path opacity="0.1" d="M181.768 90.5001C181.904 89.8681 180.968 87.8481 180.732 87.7921C180.496 87.7361 178.932 89.1721 178.784 89.8441C178.767 89.9781 178.786 90.1141 178.839 90.2384C178.892 90.3627 178.976 90.4709 179.084 90.5521C179.375 90.7887 179.717 90.9539 180.083 91.0345C180.449 91.115 180.829 91.1088 181.192 91.0161C181.325 90.988 181.448 90.9255 181.549 90.835C181.65 90.7444 181.725 90.629 181.768 90.5001Z" fill="black"/>
<path d="M191.968 78.4001C190.908 83.2281 185.776 88.4961 180.568 88.5601C175.888 86.0681 173.416 79.3841 174.48 74.5601C175.544 69.7361 179.644 65.9041 185.28 67.1441C190.916 68.3841 193.032 73.5481 191.968 78.4001Z" fill="#FBD57D"/>
<path opacity="0.05" d="M174.3 77.1402C174.3 77.1402 174.584 82.0602 180.236 83.6922C185.684 85.2642 191.516 80.1842 192.236 76.1282C192.223 76.8858 192.135 77.6402 191.972 78.3802C190.912 83.2082 185.78 88.4762 180.572 88.5402C176.692 86.4762 174.336 81.5322 174.244 77.1482L174.3 77.1402Z" fill="black"/>
<path d="M121.728 17.436C119.86 17.252 117.328 20.372 119.16 21.872C120.176 22.704 122.388 22.344 122.36 20.788C122.355 20.7449 122.337 20.7044 122.307 20.6726C122.278 20.6409 122.239 20.6196 122.196 20.612C120.728 20.276 119.272 20.908 119.52 22.612C119.653 23.3466 120.031 24.0143 120.593 24.5062C121.155 24.998 121.866 25.2849 122.612 25.32C122.7 25.32 122.668 25.168 122.612 25.152C121.332 24.884 120.124 24.088 119.872 22.72C119.815 22.4779 119.81 22.2265 119.858 21.9824C119.905 21.7383 120.004 21.507 120.148 21.304C120.319 21.0984 120.545 20.9458 120.8 20.864C121.02 20.796 121.808 20.672 122 20.864C122.344 21.22 121.408 21.824 121.128 21.92C120.852 22.0192 120.557 22.0563 120.264 22.0287C119.972 22.001 119.689 21.9093 119.436 21.76C118.66 21.216 118.852 20.192 119.228 19.468C119.736 18.488 120.624 17.692 121.768 17.652C121.872 17.652 121.816 17.456 121.736 17.448L121.728 17.436Z" fill="#FBD57D"/>
<path d="M122.348 78.892C122.936 77.568 122.872 76.196 124.584 75.76C125.336 75.568 127.116 75.392 127.68 76.06C127.783 76.2213 127.824 76.4141 127.797 76.6034C127.77 76.7927 127.676 76.9661 127.532 77.092C127.088 77.492 126.756 77.012 126.64 76.588C126.551 76.1965 126.585 75.787 126.738 75.4158C126.892 75.0447 127.156 74.7303 127.496 74.516C128.214 74.0429 129.084 73.856 129.933 73.9923C130.782 74.1285 131.55 74.578 132.084 75.252C132.148 75.332 132.216 75.252 132.188 75.164C130.876 72.144 124.588 74.244 126.588 77.14C127.2 78.016 128.28 77.244 128.076 76.316C127.852 75.288 126.1 75.34 125.324 75.392C124.538 75.3925 123.779 75.6846 123.196 76.212C122.512 76.884 122.42 77.948 122.276 78.852C122.276 78.892 122.312 78.952 122.34 78.892H122.348Z" fill="#FBD57D"/>
<path d="M167.2 13.9519C168.428 13.5919 170.116 13.6919 171.144 14.5199C171.944 15.1599 172.392 16.5479 171.22 17.0239C170.76 17.2079 169.244 17.2079 169.064 16.5839C168.936 16.1479 169.404 15.8879 169.78 15.8319C170.88 15.6599 171.912 16.8199 171.884 17.8559C171.848 19.4119 170.036 19.9279 168.756 19.9399C168.672 19.9399 168.692 20.0999 168.756 20.1039C170.936 20.3159 173.368 18.2959 171.428 16.2719C170.908 15.7279 170.092 15.3399 169.34 15.6399C168.916 15.8119 168.58 16.1959 168.792 16.6559C169.132 17.3959 170.5 17.5239 171.164 17.3359C171.34 17.2891 171.505 17.2067 171.647 17.0937C171.79 16.9808 171.909 16.8397 171.995 16.6792C172.081 16.5188 172.133 16.3423 172.149 16.1608C172.164 15.9793 172.142 15.7966 172.084 15.6239C171.548 13.6559 168.792 13.2239 167.16 13.8359C167.112 13.8359 167.132 13.9679 167.188 13.9519H167.2Z" fill="#FBD57D"/>
<path d="M183.292 96.5239C184.52 96.1639 186.208 96.2639 187.236 97.0919C188.036 97.7319 188.484 99.1199 187.312 99.5959C186.852 99.7799 185.336 99.7799 185.156 99.1519C185.028 98.7199 185.496 98.4599 185.868 98.3999C186.972 98.2319 188 99.3919 187.976 100.428C187.94 101.984 186.128 102.5 184.848 102.512C184.764 102.512 184.784 102.672 184.848 102.676C187.028 102.888 189.46 100.868 187.52 98.8439C187 98.2999 186.184 97.9119 185.432 98.2119C185.008 98.3799 184.672 98.7679 184.884 99.2279C185.224 99.9679 186.592 100.096 187.256 99.9039C187.432 99.858 187.597 99.7763 187.74 99.6639C187.883 99.5515 188.002 99.4107 188.088 99.2504C188.175 99.0901 188.227 98.9137 188.242 98.7323C188.257 98.5508 188.235 98.3682 188.176 98.1959C187.64 96.2239 184.884 95.7959 183.252 96.4079C183.204 96.4079 183.22 96.5399 183.28 96.5239H183.292Z" fill="#FBD57D"/>
<path d="M174.292 36.716C172.828 37.152 171.468 39.728 172.828 40.9C173.984 41.896 176.32 41.672 175.932 39.772C175.928 39.7504 175.919 39.7301 175.905 39.7132C175.891 39.6963 175.873 39.6835 175.852 39.676C174.316 39.308 173.808 41.1 174.132 42.284C174.632 44.124 176.488 44.1 177.828 43.14C177.872 43.108 177.852 42.98 177.788 43.012C176.692 43.56 175.156 44.048 174.488 42.648C174.132 41.9 174.12 40.648 174.808 40.084C174.987 39.917 175.223 39.8253 175.468 39.828C175.98 39.888 175.892 40.44 175.604 40.792C175.144 41.352 174.22 41.292 173.604 41.076C171.496 40.328 172.944 37.596 174.32 36.828C174.36 36.804 174.352 36.7 174.292 36.716Z" fill="#FBD57D"/>
<path d="M141.736 30.2799C140.008 30.0599 136.292 31.5159 137.26 33.8799C137.776 35.1399 140.08 35.9479 140.836 34.5039C140.852 34.4646 140.853 34.4205 140.837 34.381C140.821 34.3414 140.791 34.3095 140.752 34.2919C137.152 32.2519 133.36 38.1439 137.18 40.2919C137.3 40.3599 137.296 40.1559 137.228 40.1039C136.898 39.8783 136.617 39.5892 136.401 39.2535C136.184 38.9178 136.037 38.5423 135.967 38.149C135.897 37.7557 135.907 37.3524 135.995 36.9628C136.083 36.5732 136.248 36.2051 136.48 35.8799C136.869 35.2586 137.423 34.7574 138.08 34.4319C138.572 34.1999 139.808 33.8719 140.268 34.3519C140.476 34.5759 140.472 34.2959 140.364 34.5559C140.261 34.7104 140.104 34.8204 139.924 34.8639C139.531 34.9887 139.108 34.9745 138.724 34.8239C137.924 34.5439 137.296 33.8079 137.524 32.9239C137.944 31.1519 140.2 30.5239 141.78 30.4959C141.888 30.4959 141.82 30.2919 141.736 30.2799Z" fill="#FBD57D"/>
<path d="M149.6 14.332C149.6 14.332 149.496 16.268 150.932 17.344L152.436 16.884C152.436 16.884 151.432 16.404 150.932 14.332H149.6Z" fill="#455A64"/>
<path d="M124.264 61.2C124.264 61.2 124.156 63.136 125.592 64.212L127.1 63.752C127.1 63.752 126.092 63.272 125.592 61.2H124.264Z" fill="#455A64"/>
<path d="M136.56 83.0159C136.56 83.0159 136.452 84.9479 137.892 86.0239L139.396 85.5679C139.396 85.5679 138.392 85.0839 137.892 83.0159H136.56Z" fill="#37474F"/>
<path d="M183.704 24.0319C183.704 24.0319 182.824 25.7599 181.044 25.9719L179.968 24.8199C179.968 24.8199 181.08 24.9079 182.552 23.3679L183.704 24.0319Z" fill="#455A64"/>
<path d="M173.388 85.8159C173.388 85.8159 172.512 87.544 170.728 87.752L169.652 86.6039C169.652 86.6039 170.768 86.6879 172.236 85.1479L173.388 85.8159Z" fill="#455A64"/>
<path d="M148.768 49.524C148.768 49.524 147.892 51.252 146.108 51.46L145.032 50.312C145.032 50.312 146.148 50.396 147.616 48.856L148.768 49.524Z" fill="#FBD57D"/>
<path d="M132.764 28.1999C132.764 28.1999 131.888 29.9279 130.108 30.1399L129.032 28.9879C129.032 28.9879 130.144 29.0759 131.616 27.5359L132.764 28.1999Z" fill="#455A64"/>
<path d="M166 30.8C166 30.8 164.076 31.04 162.904 29.676L163.26 28.144C163.26 28.144 163.808 29.116 165.908 29.472L166 30.8Z" fill="#FBD57D"/>
<path d="M138.104 21.3559C138.104 21.3559 136.184 21.5959 135.012 20.2359L135.364 18.7039C135.364 18.7039 135.916 19.6719 138.016 20.0319L138.104 21.3559Z" fill="#FBD57D"/>
<path d="M105.756 17.1559C105.756 17.1559 103.836 17.3959 102.664 16.0359L103.016 14.5039C103.016 14.5039 103.568 15.4719 105.664 15.8319L105.756 17.1559Z" fill="#FBD57D"/>
<path d="M128.772 42.9639C128.772 42.9639 126.852 43.1999 125.68 41.8399L126.032 40.3079C126.032 40.3079 126.584 41.2799 128.684 41.6359L128.772 42.9639Z" fill="#FBD57D"/>
<path d="M186.328 57.2881C186.328 57.2881 184.404 57.5241 183.236 56.1641L183.588 54.6321C183.588 54.6321 184.14 55.6041 186.236 55.9601L186.328 57.2881Z" fill="#FBD57D"/>
<path d="M152.828 37.9001C152.828 37.9001 151.952 39.6281 150.168 39.8401L149.092 38.6881C149.092 38.6881 150.408 38.8921 151.892 37.3521L152.828 37.9001Z" fill="#455A64"/>
<path d="M154.764 40.4519C154.764 40.4519 154.42 42.3599 152.764 43.0719L151.404 42.2719C152.366 41.8377 153.166 41.1095 153.688 40.1919L154.764 40.4519Z" fill="#37474F"/>
<path d="M87.156 15.9399C89.028 15.7559 91.556 18.8719 89.724 20.3719C88.712 21.2079 86.496 20.8439 86.524 19.2879C86.5293 19.2455 86.5482 19.2059 86.5777 19.1749C86.6072 19.144 86.6459 19.1233 86.688 19.1159C88.16 18.7799 89.612 19.4079 89.364 21.1159C89.2316 21.8498 88.854 22.5169 88.293 23.0081C87.732 23.4994 87.0209 23.7856 86.276 23.8199C86.184 23.8199 86.216 23.6679 86.276 23.6559C87.556 23.3839 88.764 22.5879 89.012 21.2199C89.0699 20.9785 89.0752 20.7275 89.0276 20.4839C88.9799 20.2403 88.8805 20.0098 88.736 19.8079C88.5631 19.5952 88.3304 19.4392 88.068 19.3599C87.852 19.2919 87.06 19.1679 86.888 19.3599C86.54 19.7199 87.48 20.3199 87.76 20.4159C88.0355 20.5165 88.3301 20.5543 88.6221 20.5266C88.9141 20.4989 89.1962 20.4065 89.448 20.2559C90.224 19.7159 90.032 18.6919 89.656 17.9639C89.152 16.9879 88.26 16.1879 87.116 16.1519C87.016 16.1519 87.068 15.9559 87.148 15.9479L87.156 15.9399Z" fill="#FBD57D"/>
<path d="M84.156 81.508C83.568 80.184 83.628 78.812 81.92 78.372C81.168 78.18 79.388 78.004 78.82 78.676C78.7183 78.8369 78.6774 79.0288 78.7045 79.2173C78.7316 79.4057 78.825 79.5782 78.968 79.704C79.416 80.104 79.768 79.624 79.864 79.204C79.9536 78.8119 79.9194 78.4017 79.766 78.0299C79.6127 77.6581 79.3479 77.343 79.008 77.128C78.2875 76.6495 77.4132 76.4599 76.5593 76.597C75.7053 76.7342 74.9344 77.1879 74.4 77.868C74.34 77.944 74.272 77.868 74.3 77.78C75.612 74.76 81.9 76.86 79.9 79.756C79.288 80.632 78.204 79.856 78.408 78.932C78.636 77.904 80.408 77.956 81.16 78.004C81.9473 78.0057 82.7064 78.2977 83.292 78.824C83.976 79.5 84.068 80.564 84.212 81.464C84.212 81.508 84.176 81.564 84.148 81.508H84.156Z" fill="#FBD57D"/>
<path d="M35 13.9519C33.772 13.5919 32.084 13.6919 31.052 14.5199C30.252 15.1599 29.808 16.5479 30.98 17.0239C31.44 17.2079 32.956 17.2079 33.136 16.5839C33.264 16.1479 32.796 15.8879 32.42 15.8319C31.32 15.6599 30.288 16.8199 30.312 17.8559C30.352 19.4119 32.164 19.9279 33.444 19.9399C33.528 19.9399 33.508 20.0999 33.444 20.1039C31.264 20.3159 28.832 18.2959 30.768 16.2719C31.292 15.7279 32.108 15.3399 32.86 15.6399C33.284 15.8119 33.62 16.1959 33.408 16.6559C33.068 17.3959 31.7 17.5239 31.036 17.3359C30.86 17.2891 30.6954 17.2067 30.5525 17.0937C30.4096 16.9808 30.2914 16.8397 30.2051 16.6792C30.1189 16.5188 30.0665 16.3423 30.0512 16.1608C30.0358 15.9793 30.0579 15.7966 30.116 15.6239C30.652 13.6559 33.404 13.2239 35.04 13.8359C35.088 13.8359 35.068 13.9679 35.012 13.9519H35Z" fill="#FBD57D"/>
<path d="M20.716 95.0438C19.488 94.6838 17.8 94.7838 16.768 95.6118C15.968 96.2518 15.52 97.6398 16.696 98.1158C17.156 98.2998 18.668 98.2999 18.852 97.6759C18.976 97.2399 18.508 96.9798 18.136 96.9238C17.032 96.7518 16.004 97.9118 16.028 98.9478C16.064 100.504 17.876 101.02 19.156 101.032C19.244 101.032 19.22 101.192 19.156 101.2C16.976 101.408 14.544 99.3879 16.48 97.3639C17.004 96.8199 17.816 96.4318 18.568 96.7318C18.996 96.9038 19.332 97.2878 19.12 97.7478C18.78 98.4878 17.408 98.6159 16.744 98.4279C16.568 98.3811 16.4035 98.2986 16.2607 98.1856C16.1179 98.0726 15.9999 97.9314 15.914 97.7709C15.8281 97.6103 15.7762 97.4338 15.7614 97.2523C15.7466 97.0708 15.7692 96.8882 15.828 96.7158C16.36 94.7478 19.116 94.3359 20.752 94.9279C20.8 94.9279 20.78 95.0598 20.724 95.0438H20.716Z" fill="#FBD57D"/>
<path d="M23.864 37.456C25.328 37.892 26.688 40.468 25.328 41.64C24.172 42.64 21.836 42.412 22.224 40.512C22.2284 40.4906 22.2379 40.4707 22.2519 40.4539C22.2659 40.4372 22.2838 40.4242 22.304 40.416C23.84 40.052 24.348 41.844 24.024 43.028C23.524 44.864 21.668 44.844 20.328 43.88C20.284 43.848 20.304 43.724 20.368 43.756C21.464 44.304 23 44.788 23.668 43.388C24.024 42.64 24.036 41.388 23.348 40.828C23.1695 40.6599 22.9332 40.5668 22.688 40.568C22.176 40.628 22.264 41.184 22.552 41.532C23.012 42.092 23.936 42.032 24.552 41.816C26.66 41.072 25.212 38.336 23.836 37.568C23.796 37.544 23.804 37.44 23.864 37.456Z" fill="#FBD57D"/>
<path d="M28.516 70.2159C26.024 70.4159 26.472 75.1479 28.484 75.7879C28.6076 75.8322 28.7389 75.8514 28.87 75.8446C29.0012 75.8377 29.1296 75.8048 29.248 75.7479C29.3956 75.6394 29.5141 75.4961 29.593 75.3307C29.6718 75.1653 29.7086 74.983 29.7 74.7999C29.46 73.9999 28.1 75.0159 27.944 75.3319C27.685 75.7483 27.5642 76.2359 27.5986 76.725C27.6331 77.2142 27.8212 77.68 28.136 78.0559C29.16 79.1639 31.12 79.1999 32.4 78.5599C32.464 78.5239 32.476 78.6479 32.432 78.6799C31.052 79.5639 28.74 79.4359 27.716 78.0359C26.916 76.9159 27.464 73.9439 29.248 74.2079C30.912 74.4519 29.76 76.3479 28.5 76.0959C27.24 75.8439 26.784 74.1719 26.664 73.1359C26.512 71.8319 26.9 70.0719 28.516 70.0999C28.568 70.0999 28.564 70.2119 28.516 70.2159Z" fill="#FBD57D"/>
<path d="M59.812 30.2799C61.54 30.0599 65.256 31.5159 64.288 33.8799C63.772 35.1399 61.468 35.9479 60.712 34.5039C60.6957 34.4646 60.6954 34.4205 60.7111 34.381C60.7268 34.3414 60.7572 34.3095 60.796 34.2919C64.396 32.2519 68.188 38.1439 64.368 40.2919C64.248 40.3599 64.252 40.1559 64.32 40.1039C64.6502 39.8783 64.9319 39.589 65.1488 39.2529C65.3657 38.9169 65.5133 38.541 65.583 38.1472C65.6526 37.7534 65.643 37.3497 65.5545 36.9596C65.4661 36.5696 65.3007 36.2012 65.068 35.8759C64.6788 35.2546 64.125 34.7534 63.468 34.4279C62.976 34.1959 61.74 33.8679 61.28 34.3479C61.072 34.5719 61.076 34.2919 61.184 34.5519C61.2866 34.7064 61.4438 34.8164 61.624 34.8599C62.0167 34.9847 62.4404 34.9705 62.824 34.8199C63.624 34.5399 64.252 33.8039 64.024 32.9199C63.604 31.1479 61.348 30.5199 59.768 30.4919C59.66 30.4919 59.728 30.2879 59.812 30.2759V30.2799Z" fill="#FBD57D"/>
<path d="M52.8 17.8519C52.8 17.8519 52.908 19.7879 51.468 20.8639L49.964 20.3999C49.964 20.3999 50.968 19.9199 51.468 17.8479L52.8 17.8519Z" fill="#455A64"/>
<path d="M83.884 65.7639C83.884 65.7639 83.992 67.6999 82.552 68.7759L81.048 68.3199C81.048 68.3199 82.052 67.8359 82.552 65.7639H83.884Z" fill="#455A64"/>
<path d="M77.94 88.9041C77.94 88.9041 78.044 90.8401 76.608 91.9161L75.104 91.4561C75.104 91.4561 76.108 90.9761 76.608 88.9041H77.94Z" fill="#37474F"/>
<path d="M17.844 24.0319C17.844 24.0319 18.724 25.7599 20.504 25.9719L21.6 24.8199C21.6 24.8199 20.488 24.9079 19.016 23.3679L17.844 24.0319Z" fill="#455A64"/>
<path d="M36.452 83.7079C36.452 83.7079 37.328 85.4359 39.112 85.6479L40.188 84.4959C40.188 84.4959 39.072 84.5839 37.604 83.0439L36.452 83.7079Z" fill="#455A64"/>
<path d="M55.396 51.7639C55.396 51.7639 56.272 53.4919 58.056 53.7039L59.128 52.5519C59.128 52.5519 58.016 52.6399 56.548 51.0999L55.396 51.7639Z" fill="#FBD57D"/>
<path d="M72.8 29.1479C72.8 29.1479 73.676 30.8759 75.46 31.0879L76.532 29.9359C76.532 29.9359 75.42 30.0239 73.952 28.4839L72.8 29.1479Z" fill="#455A64"/>
<path d="M35.544 30.8C35.544 30.8 37.468 31.04 38.64 29.676L38.284 28.144C38.284 28.144 37.736 29.116 35.636 29.472L35.544 30.8Z" fill="#FBD57D"/>
<path d="M68.4 15.82C68.4 15.82 70.324 16.06 71.496 14.7L71.144 13.168C71.144 13.168 70.592 14.136 68.492 14.496L68.4 15.82Z" fill="#FBD57D"/>
<path d="M72.764 41.3479C72.764 41.3479 74.684 41.5839 75.856 40.2239L75.504 38.6919C75.504 38.6919 74.952 39.6639 72.852 40.0199L72.764 41.3479Z" fill="#FBD57D"/>
<path d="M10.4 79.384C10.4 79.384 12.324 79.624 13.496 78.264L13.144 76.728C13.144 76.728 12.592 77.7 10.492 78.056L10.4 79.384Z" fill="#FBD57D"/>
<path d="M48.72 37.9001C48.72 37.9001 49.596 39.6281 51.38 39.8401L52.456 38.6881C52.456 38.6881 51.14 38.8921 49.656 37.3521L48.72 37.9001Z" fill="#455A64"/>
<path d="M46.8 40.4519C46.8 40.4519 47.144 42.3599 48.8 43.0719L50.16 42.2719C49.1977 41.8377 48.398 41.1095 47.876 40.1919L46.8 40.4519Z" fill="#37474F"/>
<path d="M109.952 30.496C109.952 30.496 109.076 32.224 107.292 32.436L106.216 31.288C106.216 31.288 107.532 31.488 109.016 29.948L109.952 30.496Z" fill="#455A64"/>
<path d="M101.328 28.4241C101.328 28.4241 100.984 30.3321 99.328 31.0481L97.968 30.2481C98.9311 29.8133 99.731 29.0835 100.252 28.1641L101.328 28.4241Z" fill="#37474F"/>
<path d="M152.208 123.312C152.249 124.682 152.41 126.046 152.688 127.388C153.352 135.748 154.22 137.712 155.22 143.5C155.328 144.148 155.588 145.432 155.62 145.86C155.668 146.4 155.916 150.484 156.136 151.7C156.452 153.484 159.416 153.528 159.644 151.456C159.796 150.076 159.428 146.436 159.4 145.772C159.4 145.772 159.4 144.596 159.4 144.024C159.4 141.424 159.828 136.424 160.076 131.908C160.264 128.504 159.56 126.812 159.14 125.108C159.14 125.108 159.996 119.592 161.036 113.508C162.076 107.424 164.608 100.456 159.544 94.9441L152.556 97.3441C152.556 97.3441 151.84 108.512 152.112 117.592C152.168 120.184 152.212 122.044 152.208 123.312Z" fill="#FFBDA7"/>
<path d="M148.964 133.16C150.04 134.588 150.728 136.32 151.436 137.96C151.126 138.819 150.712 139.637 150.204 140.396L147.348 136.672C147.904 135.5 148.432 134.328 148.964 133.16Z" fill="#263238"/>
<path d="M150.204 140.4C148.936 140.4 147.664 140.4 146.392 140.4C145.756 139.58 145.112 138.768 144.48 137.948C145.808 137.988 147.136 138.068 148.48 138.104L150.204 140.4Z" fill="black"/>
<path d="M145.6 131.556C146.4 130.968 146.472 131.668 147.16 131.988C147.64 132.212 148.44 132.512 148.908 133.152C149.564 134.048 149.048 135.644 148.728 136.792C148.422 137.909 148.435 139.09 148.764 140.2C149.144 141.856 149.108 143.208 147.84 144.656C146.828 145.816 143.616 147.224 142.512 146.508C140.628 145.308 143.392 142.62 143.352 141.02C143.305 138.982 143.036 136.956 142.552 134.976C142.48 134.66 142.444 134.324 142.636 134.176C143.496 133.404 144.8 132.144 145.6 131.556Z" fill="#37474F"/>
<path d="M147.012 94.9361C145.472 96.7561 138.04 105.98 136.104 109.136C134.832 111.208 135.704 113.936 136.408 116.216C137.324 119.26 138.628 122.74 139.392 124.984C140.82 129.168 141.876 131.384 143.024 135.008C143.688 135.7 144.876 135.104 145.532 134.64C146.096 134.24 146.7 132.824 146.628 132.112C146.42 130.048 146.448 129.712 146.184 127.312C145.784 123.48 145.856 117.496 143.252 114.036C147.152 109.712 151.428 106.676 154.272 101.616C151.2 99.9601 149.256 92.2841 147.012 94.9361Z" fill="#FFBDA7"/>
<path d="M155.544 145.328C155.06 145.388 155.036 145.776 155.02 147.664C155.047 149.681 154.924 151.697 154.652 153.696C154.3 155.82 153.928 158.096 155.66 159.976C156.676 161.084 158.344 161.344 159.52 159.552C160.616 157.884 161.308 156.304 160.776 154.408C160.285 152.786 160.003 151.109 159.936 149.416C159.852 146.78 160 145.372 159.4 145.376V145.776C159.204 146.124 158.6 146.576 157.536 146.62C156.336 146.668 155.796 146.22 155.62 145.864C155.6 145.684 155.572 145.508 155.544 145.328Z" fill="#37474F"/>
<path d="M147.22 93.2C146.452 94.652 143.824 97.704 140.752 101.9C138.628 104.804 134.904 109.212 134.708 111.376C134.512 113.54 139.736 126.508 139.736 126.508C139.736 126.508 144.092 127.02 146.06 124.824C146.128 121.196 145.66 116.788 143.732 114.224C144.588 113.356 150.784 106.904 151.912 105.556C151.912 105.556 151.728 111.908 151.716 115.508C151.704 119.108 152.116 126.308 152.428 128.612C152.74 130.916 153.16 134.336 153.34 135.412C153.34 135.412 156.032 137.9 160.14 135.328C160.14 135.328 160.54 131.696 160.412 130.092C160.284 128.488 159.736 126.552 159.408 125.168C159.408 125.168 161.008 115.392 161.788 111.06C162.568 106.728 164.048 100.104 160.132 93.7479C160.148 93.7439 152.744 96.176 147.22 93.2Z" fill="#455A64"/>
<path d="M151.912 105.548C151.912 105.548 149.428 103.972 148.4 102.148C148.4 102.148 148.94 104.316 150.4 105.548L146 111.86L151.912 105.548Z" fill="#37474F"/>
<path d="M137.244 66.62C140.324 73.628 144.492 76.072 146.444 80.568C148.908 80.372 152.292 76.268 150.424 73.744C148.316 72.884 141.444 65.584 141.012 62.476C140.632 59.716 139.092 55.432 139.132 53.132C139.148 52.7487 139.301 52.3838 139.564 52.104C140.312 51.28 140.304 50.628 140.764 49.704C141.132 49 141.544 48.732 141.424 48.576C141.267 48.4107 141.053 48.311 140.825 48.2969C140.597 48.2828 140.372 48.3554 140.196 48.5C139.847 48.7551 139.537 49.0596 139.276 49.404C139.393 48.5441 139.632 47.7051 139.984 46.912C140.784 45.008 140.584 44.044 138.036 44.748C136.436 45.192 135.448 46.536 135.256 50.392C135.164 51.991 135.174 53.5942 135.284 55.192C135.6 58.152 135.936 60.988 136.332 63.436C136.498 64.532 136.805 65.6021 137.244 66.62Z" fill="#FFBDA7"/>
<path d="M146.928 91.236C146.708 90.204 146.448 88.256 146.292 86.836C143.696 84.404 144.424 81.752 145.368 79.8C147.256 75.896 149.084 73.68 150.792 73.744L155.472 74.092C158.024 74.392 159.772 74.684 160.388 74.816C161.964 75.16 161.916 76.304 161.988 77.972C162.183 79.6899 162.125 81.427 161.816 83.128L159.664 87.78L159.472 90.644C159.472 90.644 162.08 95.88 162.552 99.28C161.248 98.9032 160.083 98.1505 159.204 97.116C159.204 97.116 157.176 100.176 152.144 100.428C147.112 100.68 144.624 96.208 144.624 96.208L146.928 91.236Z" fill="#FBD57D"/>
<path opacity="0.1" d="M156.988 85.408C156.619 86.1225 156.051 86.7149 155.352 87.1138C154.654 87.5127 153.855 87.701 153.052 87.656C152.277 87.6385 151.52 87.4166 150.859 87.0127C150.197 86.6088 149.654 86.0373 149.284 85.356C149.284 85.356 149.432 88.428 153.06 88.392C156.688 88.356 156.988 85.408 156.988 85.408Z" fill="black"/>
<path d="M158.148 56.5281C159.86 57.4121 160.736 58.4761 162.148 58.8681C163.56 59.2601 164.7 58.8401 165.748 57.9681C166.948 56.9801 167.516 55.7321 168.76 54.9641C170.004 54.1961 171.56 53.7201 172.94 54.1921C174.668 54.7801 175.628 56.6321 176.076 58.4001C176.628 60.5961 176.42 63.0681 175.176 64.9921C172.914 68.4085 169.537 70.9337 165.62 72.1361C160.809 73.6018 155.617 73.1355 151.144 70.8361C149.304 69.8921 148.712 69.0721 147.38 67.5401C146.048 66.0081 145.552 64.1361 145.968 61.6561C146.368 59.2841 147.632 57.7561 150.052 56.4881C151.296 55.8122 152.69 55.4614 154.105 55.4684C155.521 55.4754 156.911 55.8399 158.148 56.5281Z" fill="#FBD57D"/>
<path opacity="0.5" d="M158.148 56.5281C159.86 57.4121 160.736 58.4761 162.148 58.8681C163.56 59.2601 164.7 58.8401 165.748 57.9681C166.948 56.9801 167.516 55.7321 168.76 54.9641C170.004 54.1961 171.56 53.7201 172.94 54.1921C174.668 54.7801 175.628 56.6321 176.076 58.4001C176.628 60.5961 176.42 63.0681 175.176 64.9921C172.914 68.4085 169.537 70.9337 165.62 72.1361C160.809 73.6018 155.617 73.1355 151.144 70.8361C149.304 69.8921 148.712 69.0721 147.38 67.5401C146.048 66.0081 145.552 64.1361 145.968 61.6561C146.368 59.2841 147.632 57.7561 150.052 56.4881C151.296 55.8122 152.69 55.4614 154.105 55.4684C155.521 55.4754 156.911 55.8399 158.148 56.5281Z" fill="black"/>
<path d="M149.412 59.52C148.524 60.016 147.412 62.188 147.388 66.804C147.388 70.712 148.628 71.708 149.256 72.004C149.884 72.3 151.116 72.156 152.312 72.004L152.256 74.352C152.256 74.352 148.876 77.876 151.608 78.288C152.972 78.496 154.72 77.672 155.904 76.78C156.666 76.1532 157.216 75.3068 157.48 74.356L157.576 69.252C157.576 69.252 158.26 69.952 159.476 68.94C160.48 68.104 160.844 66.664 160.096 65.868C159.902 65.6787 159.665 65.5382 159.406 65.4581C159.147 65.3781 158.872 65.3608 158.605 65.4077C158.338 65.4545 158.086 65.5643 157.869 65.7277C157.653 65.8912 157.478 66.1038 157.36 66.348C157.36 66.348 156.66 66.388 155.992 65.072C154.817 65.1725 153.642 64.8798 152.652 64.24C151.822 63.7118 151.107 63.0216 150.551 62.2105C149.994 61.3994 149.607 60.4843 149.412 59.52Z" fill="#FFBDA7"/>
<path d="M152.464 65.696C152.453 65.8279 152.494 65.9588 152.579 66.0606C152.663 66.1624 152.784 66.2268 152.916 66.24C153.049 66.2466 153.18 66.2003 153.28 66.1112C153.379 66.0221 153.44 65.8974 153.448 65.764C153.452 65.6994 153.444 65.6345 153.424 65.5731C153.403 65.5117 153.37 65.455 153.328 65.4061C153.285 65.3573 153.234 65.3173 153.176 65.2885C153.118 65.2596 153.055 65.2425 152.99 65.238C152.925 65.2335 152.861 65.2418 152.799 65.2624C152.738 65.283 152.681 65.3155 152.632 65.3581C152.583 65.4006 152.543 65.4523 152.514 65.5103C152.486 65.5683 152.468 65.6314 152.464 65.696Z" fill="#263238"/>
<g style="mix-blend-mode:multiply" opacity="0.5">
<path d="M151.776 68.9521L150.232 69.4041C150.259 69.5066 150.305 69.6029 150.369 69.6873C150.433 69.7716 150.513 69.8425 150.605 69.8957C150.696 69.9489 150.797 69.9834 150.902 69.9972C151.007 70.011 151.114 70.0039 151.216 69.9761C151.424 69.9113 151.598 69.7683 151.703 69.5773C151.807 69.3863 151.834 69.1621 151.776 68.9521Z" fill="#F0997A"/>
</g>
<path d="M148.06 64.06L149.072 63.396C149.032 63.3274 148.979 63.2676 148.915 63.2204C148.852 63.1732 148.779 63.1396 148.702 63.1216C148.624 63.1036 148.544 63.1016 148.466 63.1158C148.388 63.13 148.314 63.16 148.248 63.204C148.113 63.2954 148.018 63.4351 147.983 63.5945C147.948 63.7538 147.976 63.9204 148.06 64.06Z" fill="#263238"/>
<path d="M153.2 64L154.32 64.464C154.356 64.3918 154.377 64.3129 154.381 64.2324C154.385 64.1518 154.372 64.0713 154.343 63.996C154.314 63.9207 154.269 63.8523 154.212 63.7951C154.155 63.7379 154.087 63.6933 154.012 63.664C153.859 63.6047 153.69 63.6066 153.539 63.6692C153.387 63.7318 153.266 63.8502 153.2 64Z" fill="#263238"/>
<path d="M148.296 65.488C148.293 65.5844 148.319 65.6795 148.369 65.7614C148.42 65.8434 148.494 65.9087 148.581 65.9492C148.669 65.9897 148.766 66.0036 148.861 65.9892C148.957 65.9748 149.046 65.9327 149.117 65.8681C149.189 65.8036 149.24 65.7194 149.264 65.6261C149.288 65.5328 149.284 65.4345 149.253 65.3433C149.222 65.2521 149.165 65.1721 149.088 65.1132C149.012 65.0543 148.92 65.0191 148.824 65.012C148.758 65.0083 148.692 65.0176 148.63 65.0396C148.567 65.0615 148.51 65.0956 148.461 65.1399C148.412 65.1841 148.372 65.2377 148.343 65.2975C148.315 65.3572 148.299 65.422 148.296 65.488Z" fill="#263238"/>
<g style="mix-blend-mode:multiply" opacity="0.5">
<path d="M150.66 65.2639L150.512 68.2199L148.968 67.6999L150.66 65.2639Z" fill="#F0997A"/>
</g>
<g style="mix-blend-mode:multiply" opacity="0.5">
<path d="M152.312 72.0001C153.576 71.8681 156.176 71.2001 156.604 70.1721C156.432 70.6862 156.105 71.1346 155.668 71.4561C154.868 72.1001 152.296 72.7841 152.296 72.7841L152.312 72.0001Z" fill="#F0997A"/>
</g>
<path d="M157.36 66.328L157.312 68.38C157.128 68.3758 156.947 68.3355 156.779 68.2612C156.611 68.1869 156.459 68.0802 156.333 67.9472C156.206 67.8141 156.107 67.6574 156.041 67.4859C155.975 67.3145 155.943 67.1317 155.948 66.948L155.992 65.052L157.36 66.328Z" fill="#FBD57D"/>
<path opacity="0.5" d="M157.36 66.328L157.312 68.38C157.128 68.3758 156.947 68.3355 156.779 68.2612C156.611 68.1869 156.459 68.0802 156.333 67.9472C156.206 67.8141 156.107 67.6574 156.041 67.4859C155.975 67.3145 155.943 67.1317 155.948 66.948L155.992 65.052L157.36 66.328Z" fill="black"/>
<path d="M170.692 67.2001C167.784 74.2801 164.184 78.6161 161.836 83.1441C157.836 83.3801 157.472 77.2001 159.276 74.6321C159.276 74.6321 166.228 66.2321 166.844 63.1481C167.388 60.4161 168.596 56.0601 168.496 53.7601C168.474 53.3769 168.312 53.0152 168.04 52.7441C167.276 51.9441 167.268 51.2841 166.768 50.3881C166.368 49.6921 165.968 49.4361 166.08 49.2761C166.234 49.1067 166.446 49.0017 166.674 48.9824C166.901 48.9631 167.128 49.0309 167.308 49.1721C167.662 49.4187 167.979 49.7151 168.248 50.0521C168.109 49.1963 167.85 48.3642 167.48 47.5801C166.62 45.6961 166.812 44.7241 169.376 45.3681C170.976 45.7681 172.004 47.0961 172.292 50.9441C172.422 52.5407 172.45 54.144 172.376 55.7441C172.136 58.7121 171.864 61.5521 171.532 64.0121C171.388 65.1061 171.106 66.1774 170.692 67.2001Z" fill="#FFBDA7"/>
<path d="M90.992 150.892C91.284 151.668 91.72 152.44 92.592 152.728C94.384 153.324 96.712 151.784 97.676 150.636C98.844 149.244 99.02 147.76 99.876 146.604C100.732 145.448 101.94 144.716 102.524 143.716C102.764 143.342 102.906 142.914 102.936 142.47C102.966 142.027 102.884 141.583 102.696 141.18C102.421 140.679 102.003 140.271 101.496 140.008C101.364 139.928 101.132 139.92 100.988 139.84L90.992 150.892Z" fill="#263238"/>
<path d="M94.716 143.6C94.5914 144.319 94.3101 145.002 93.892 145.6C93.148 146.592 92.192 147.324 91.316 148.184C91.0006 148.438 90.744 148.757 90.564 149.12C90.196 150.08 90.628 150.856 91.304 151.604C91.5992 151.873 91.9543 152.068 92.34 152.172C92.9081 152.328 93.5078 152.328 94.076 152.172C95.171 151.797 96.1507 151.145 96.92 150.28C98.436 148.584 98.34 146.356 100.148 144.868C101.956 143.38 103.172 141.792 101.328 139.872C100.432 138.936 99.432 138.536 99.164 138.2C98.684 137.604 97.564 138.648 97.208 138.952C96.852 139.256 96.508 139.616 96.144 139.936C95.8088 140.313 95.5014 140.714 95.224 141.136C95.109 141.254 95.0131 141.389 94.94 141.536C94.8771 141.732 94.8526 141.939 94.868 142.144C94.8661 142.633 94.8152 143.121 94.716 143.6Z" fill="#37474F"/>
<path d="M96.948 150.268C97.1588 150.046 97.3489 149.805 97.516 149.548C97.231 148.691 96.6679 147.953 95.916 147.452C95.4498 147.135 94.9215 146.922 94.3663 146.825C93.8111 146.729 93.2417 146.751 92.696 146.892C92.1418 147.232 91.6185 147.621 91.132 148.052C90.8138 148.327 90.5726 148.68 90.432 149.076C90.3066 149.543 90.3251 150.036 90.485 150.493C90.6448 150.949 90.9387 151.346 91.328 151.632C91.6087 151.891 91.9519 152.073 92.324 152.16C92.8935 152.316 93.4945 152.316 94.064 152.16C95.1629 151.769 96.1519 151.12 96.948 150.268Z" fill="#FAFAFA"/>
<path d="M97.896 135.168L98.976 138.476C98.976 138.476 99.804 139.56 98.5 140.816C97.196 142.072 95.736 142.016 95.108 141.252L93.248 137.74L97.896 135.168Z" fill="#B16668"/>
<path d="M125.092 128.48C125.568 128.704 126.824 128.788 127.516 128.316C128.96 127.332 129.268 124.432 128.816 122.828C128.264 120.884 127.184 119.9 126.816 118.732C126.448 117.564 126.548 115.892 126.06 114.872C125.862 114.477 125.58 114.129 125.235 113.853C124.89 113.577 124.489 113.379 124.06 113.272C123.788 113.198 123.503 113.186 123.226 113.238C122.948 113.29 122.687 113.404 122.46 113.572L122.024 113.892L125.092 128.48Z" fill="#263238"/>
<path d="M121.42 121.136C121.932 121.665 122.31 122.31 122.52 123.016C122.888 124.176 122.92 125.416 123.076 126.616C123.109 127.018 123.213 127.411 123.384 127.776C123.824 128.62 124.828 128.776 125.828 128.648C126.227 128.562 126.6 128.385 126.92 128.132C127.382 127.768 127.735 127.284 127.94 126.732C128.283 125.617 128.336 124.433 128.092 123.292C127.728 121.124 125.548 119.692 125.576 117.556C125.604 115.42 124.352 112.656 121.664 114.072C120.328 114.816 119.114 115.761 118.064 116.872C118.704 117.832 119.36 118.788 119.988 119.756C120.11 120.001 120.265 120.229 120.448 120.432C120.724 120.676 121.084 120.808 121.36 121.072L121.42 121.136Z" fill="#37474F"/>
<path d="M128.092 123.328C128.039 123.029 127.955 122.737 127.84 122.456C126.993 122.159 126.069 122.168 125.228 122.48C124.682 122.65 124.184 122.946 123.774 123.344C123.364 123.742 123.054 124.232 122.868 124.772C122.812 125.42 122.812 126.072 122.868 126.72C122.909 127.138 123.046 127.54 123.268 127.896C123.856 128.748 124.804 128.812 125.804 128.696C126.202 128.609 126.576 128.432 126.896 128.18C127.357 127.815 127.71 127.331 127.916 126.78C128.269 125.663 128.33 124.475 128.092 123.328Z" fill="#FAFAFA"/>
<path d="M118.672 115.56L120.364 115.488C120.801 115.684 121.186 115.981 121.487 116.354C121.787 116.727 121.994 117.167 122.092 117.636C122.17 118.118 122.147 118.612 122.024 119.085C121.902 119.558 121.682 120 121.38 120.384L118.58 120.752L118.664 115.672" fill="#B16668"/>
<path d="M118.8 115.344L107.116 115.46C107.116 115.46 109.236 99.7841 108.536 90.6081L89.784 88.4521L89.728 88.5681C86.652 96.7561 83.404 107.436 81.636 115.484C81.092 117.964 81.372 118.64 83.3 122.284C86.008 127.396 90.616 134.236 93.916 139.428C96.524 139.196 97.916 138.404 98.516 136.248C96.468 131.476 94.736 121.18 90.116 116.812C92.696 112.212 95.116 106.928 97.58 101.852C97.656 105.084 97.98 115.68 99.104 120.044C99.8 122.784 101.32 124.42 104.352 123.936C108.576 123.26 119.736 120.76 119.736 120.76C121.976 120.44 121.416 116.252 118.8 115.344Z" fill="#FBD57D"/>
<path opacity="0.2" d="M118.8 115.344L107.116 115.46C107.116 115.46 109.236 99.7841 108.536 90.6081L89.784 88.4521L89.728 88.5681C86.652 96.7561 83.404 107.436 81.636 115.484C81.092 117.964 81.372 118.64 83.3 122.284C86.008 127.396 90.616 134.236 93.916 139.428C96.524 139.196 97.916 138.404 98.516 136.248C96.468 131.476 94.736 121.18 90.116 116.812C92.696 112.212 95.116 106.928 97.58 101.852C97.656 105.084 97.98 115.68 99.104 120.044C99.8 122.784 101.32 124.42 104.352 123.936C108.576 123.26 119.736 120.76 119.736 120.76C121.976 120.44 121.416 116.252 118.8 115.344Z" fill="black"/>
<path opacity="0.2" d="M107.128 115.46C107.128 115.46 107.288 117.576 106.384 119.156C107.024 118.556 107.521 117.819 107.836 117C108.316 115.696 112.06 116.004 114.86 115.4L107.128 115.46Z" fill="black"/>
<path opacity="0.2" d="M97.576 101.86L97.392 98.9081C95.7927 97.992 94.3725 96.794 93.2 95.3721C94.1048 96.8113 95.2306 98.099 96.536 99.1881L96.816 101.276L92.736 111.892L97.576 101.86Z" fill="black"/>
<path opacity="0.2" d="M90.12 116.8C89.8681 117.167 89.5492 117.483 89.18 117.732C90.272 118.33 91.2346 119.139 92.012 120.112C92.857 121.261 93.6266 122.464 94.316 123.712C93.2 120.984 91.876 118.472 90.12 116.8Z" fill="black"/>
<path d="M83.056 57.1561C83.632 58.6401 90.744 69.1561 92.452 71.6721C97.308 69.6001 94.076 63.8921 94.076 63.8921C94.076 63.8921 88.972 55.6321 88.144 54.2401C87.9489 53.8852 87.8265 53.4949 87.784 53.0921C87.68 52.3561 87.32 43.3241 87.76 40.5961C87.8423 40.1117 88.1 39.6746 88.484 39.3681C89.504 38.5401 89.86 37.7681 90.584 36.8001C91.148 36.0361 91.684 35.7961 91.568 35.6001C91.4129 35.3768 91.179 35.2205 90.9133 35.1626C90.6476 35.1047 90.3699 35.1496 90.136 35.2881C89.6082 35.5767 89.1168 35.9272 88.672 36.3321C88.9295 35.2839 89.355 34.2843 89.932 33.3721C91.244 31.2761 91.168 30.1041 88.036 30.4681C86.072 30.6961 84.16 32.2161 83.236 36.7241C82.968 38.0201 82.908 39.9761 82.808 41.6561C82.592 45.4721 82.448 51.5121 82.52 54.1561C82.544 55.4841 82.484 55.6761 83.056 57.1561Z" fill="#B16668"/>
<path d="M97.152 62.8001C95.468 62.5521 89.952 56.5161 89.952 56.5161C88.412 56.4281 84.636 60.3761 85.384 61.9841C87.628 65.7201 90.48 69.1841 91.256 71.5841C91.9 72.9361 93.624 71.7881 94.368 68.9441C95.412 65.0121 98.52 63.0161 97.152 62.8001Z" fill="#FBD57D"/>
<path opacity="0.3" d="M97.152 62.8001C95.468 62.5521 89.952 56.5161 89.952 56.5161C88.412 56.4281 84.636 60.3761 85.384 61.9841C87.628 65.7201 90.48 69.1841 91.256 71.5841C91.9 72.9361 93.624 71.7881 94.368 68.9441C95.412 65.0121 98.52 63.0161 97.152 62.8001Z" fill="black"/>
<path d="M109.636 69.9321L109.236 77.1001L108.8 92.3441C103.268 94.9321 95.1 93.3721 89.544 88.8961C89.544 88.8961 89.86 71.3521 91.004 67.2961C92.148 63.2401 94.204 62.4361 97.064 62.5241C100.084 62.6201 103.964 63.0441 103.964 63.0441L107.268 63.9241C107.268 63.9241 109.704 68.4961 109.636 69.9321Z" fill="#455A64"/>
<path d="M111.976 58.1281C112.352 57.9361 114.084 58.8001 115.14 60.2921C116.196 61.7841 116.268 63.8921 115.94 64.2921C115.612 64.6921 111.36 62.8001 111.36 62.8001L111.976 58.1281Z" fill="#FBD57D"/>
<path opacity="0.6" d="M111.976 58.1281C112.352 57.9361 114.084 58.8001 115.14 60.2921C116.196 61.7841 116.268 63.8921 115.94 64.2921C115.612 64.6921 111.36 62.8001 111.36 62.8001L111.976 58.1281Z" fill="black"/>
<path d="M118.952 59.252C118.244 60.676 110.172 70.472 108.232 72.82C103.596 70.3 107.352 64.924 107.352 64.924C107.352 64.924 113.2 57.2 114.16 55.872C114.388 55.5371 114.549 55.1607 114.632 54.764C114.8 54.036 116.012 45.08 115.832 42.324C115.795 41.8351 115.58 41.3768 115.228 41.036C114.292 40.112 114.008 39.316 113.38 38.276C112.888 37.476 112.38 37.176 112.512 36.98C112.688 36.7728 112.936 36.6396 113.206 36.6069C113.475 36.5743 113.748 36.6447 113.968 36.804C114.467 37.1411 114.924 37.5373 115.328 37.984C115.168 36.9153 114.837 35.8793 114.348 34.916C113.24 32.708 113.428 31.544 116.512 32.2C118.444 32.6 120.208 34.312 120.716 38.884C120.86 40.2 120.736 42.152 120.676 43.832C120.532 47.656 120.108 53.68 119.788 56.308C119.62 57.636 119.664 57.832 118.952 59.252Z" fill="#B16668"/>
<path d="M106.164 63.7082L111.976 58.1082C111.976 58.1082 111.452 62.9082 115.932 64.2802L109.256 72.7242C108.484 74.0122 106.368 72.3242 105.896 69.4362C105.236 65.4122 106.164 63.7082 106.164 63.7082Z" fill="#FBD57D"/>
<path opacity="0.3" d="M106.164 63.7082L111.976 58.1082C111.976 58.1082 111.452 62.9082 115.932 64.2802L109.256 72.7242C108.484 74.0122 106.368 72.3242 105.896 69.4362C105.236 65.4122 106.164 63.7082 106.164 63.7082Z" fill="black"/>
<path d="M103.076 50.2041C103.029 51.2262 102.68 52.2113 102.073 53.0349C101.466 53.8585 100.628 54.4836 99.6659 54.8311C98.7035 55.1785 97.6598 55.2327 96.6666 54.9869C95.6735 54.741 94.7756 54.2061 94.0865 53.4499C93.3974 52.6936 92.9481 51.7499 92.7954 50.7383C92.6427 49.7266 92.7935 48.6923 93.2287 47.7664C93.6639 46.8404 94.364 46.0644 95.2404 45.5364C96.1167 45.0084 97.13 44.7521 98.152 44.8001C99.521 44.8655 100.808 45.4711 101.731 46.4841C102.654 47.4972 103.138 48.835 103.076 50.2041Z" fill="#263238"/>
<path d="M106.668 54.0562C106.668 54.0562 105.644 57.9482 105.28 58.5802C105.039 58.9752 104.655 59.2618 104.208 59.3802L104.4 56.6122L106.668 54.0562Z" fill="#263238"/>
<path d="M105.884 48.3681C106.178 48.3478 106.473 48.3949 106.746 48.5058C107.019 48.6167 107.263 48.7885 107.46 49.0081C108.116 49.7481 107.628 51.9361 106.66 54.0561L105.06 54.1601L105.884 48.3681Z" fill="#263238"/>
<path d="M104.608 54.1401C104.916 54.3441 105.408 53.7601 105.808 53.3681C106.208 52.9761 107.52 52.4801 108.092 53.8481C108.664 55.2161 107.38 56.9881 106.364 57.2561C104.608 57.7161 104.404 56.5961 104.404 56.5961L103.972 62.9961C101.696 65.6481 95.744 65.1321 98.372 62.3721L98.464 60.4761C97.6889 60.5589 96.9071 60.5589 96.132 60.4761C94.868 60.2201 94.132 59.1761 93.796 57.7841C93.28 55.5481 93.132 53.7521 93.86 49.4321C94.66 44.6961 100.204 44.9081 103.104 46.9321C106.004 48.9561 104.608 54.1401 104.608 54.1401Z" fill="#B16668"/>
<path d="M104.584 54.6721C104.744 54.6721 105.384 53.7081 105.804 53.3681C106.376 52.8961 105.884 48.3681 105.884 48.3681C106.09 47.9812 106.175 47.5413 106.128 47.1055C106.081 46.6698 105.904 46.2582 105.62 45.9241C104.912 45.0681 103.916 44.0121 100.508 44.2521C98.076 44.4241 95.408 45.0521 93.332 43.9121C93.1004 44.5955 93.0795 45.3328 93.2721 46.0282C93.4647 46.7237 93.8618 47.3452 94.412 47.8121C94.412 47.8121 95.156 48.3481 97.168 48.6881C99.0257 48.9135 100.9 48.9671 102.768 48.8481C103.356 48.7921 103.456 49.3681 103.7 50.9361C103.928 52.3161 104.048 54.6361 104.584 54.6721Z" fill="#263238"/>
<path d="M105.864 48.7202L107.824 47.7802C107.769 47.6486 107.688 47.5296 107.586 47.4304C107.483 47.3311 107.362 47.2537 107.229 47.2028C107.095 47.1519 106.953 47.1287 106.811 47.1344C106.668 47.1401 106.529 47.1748 106.4 47.2362C106.136 47.3659 105.932 47.5931 105.832 47.8699C105.732 48.1468 105.744 48.4516 105.864 48.7202Z" fill="#263238"/>
<path d="M98.452 60.4961C98.452 60.4961 101.316 60.0601 102.332 59.5801C102.929 59.3023 103.429 58.8523 103.768 58.2881C103.591 58.8618 103.3 59.3939 102.912 59.8521C102.144 60.7441 98.42 61.2521 98.42 61.2521L98.452 60.4961Z" fill="#9A4A4D"/>
<path d="M99.48 53.2002C99.4785 53.3126 99.5102 53.423 99.5711 53.5175C99.632 53.612 99.7193 53.6865 99.8223 53.7316C99.9253 53.7767 100.039 53.7905 100.15 53.7712C100.261 53.7519 100.363 53.7005 100.445 53.6232C100.527 53.5459 100.584 53.4463 100.609 53.3367C100.635 53.2272 100.627 53.1126 100.588 53.0073C100.548 52.902 100.479 52.8107 100.388 52.7447C100.297 52.6787 100.188 52.6409 100.076 52.6362C99.9998 52.6341 99.924 52.647 99.8528 52.6742C99.7816 52.7014 99.7164 52.7423 99.6611 52.7947C99.6057 52.8471 99.5613 52.9099 99.5302 52.9794C99.4991 53.049 99.482 53.124 99.48 53.2002Z" fill="#263238"/>
<path d="M100.184 51.0722L101.384 51.8002C101.479 51.6373 101.507 51.4441 101.463 51.2608C101.419 51.0775 101.306 50.9182 101.148 50.8162C101.069 50.7661 100.98 50.733 100.888 50.7188C100.795 50.7046 100.701 50.7097 100.61 50.7337C100.52 50.7578 100.435 50.8002 100.362 50.8585C100.288 50.9167 100.228 50.9894 100.184 51.0722Z" fill="#263238"/>
<path d="M98.872 57.0962L97.552 57.5202C97.5751 57.608 97.6155 57.6904 97.671 57.7623C97.7264 57.8343 97.7957 57.8944 97.8747 57.9391C97.9538 57.9839 98.041 58.0123 98.1312 58.0228C98.2214 58.0333 98.3128 58.0256 98.4 58.0002C98.582 57.9422 98.7338 57.8147 98.8222 57.6454C98.9106 57.4761 98.9285 57.2787 98.872 57.0962Z" fill="#9A4A4D"/>
<path d="M94.492 51.2761L95.64 50.4761C95.5918 50.3985 95.5283 50.3315 95.4533 50.2793C95.3784 50.2271 95.2936 50.1907 95.2042 50.1724C95.1147 50.154 95.0224 50.1541 94.933 50.1726C94.8435 50.1912 94.7588 50.2277 94.684 50.28C94.5311 50.3904 94.4262 50.5549 94.3905 50.74C94.3548 50.9251 94.3911 51.1168 94.492 51.2761Z" fill="#263238"/>
<path d="M94.76 52.8C94.751 52.8781 94.7582 52.9572 94.7812 53.0323C94.8042 53.1075 94.8424 53.1771 94.8934 53.2369C94.9445 53.2966 95.0073 53.3452 95.078 53.3796C95.1487 53.414 95.2257 53.4335 95.3042 53.4368C95.3827 53.4401 95.4611 53.4272 95.5344 53.3988C95.6077 53.3705 95.6744 53.3274 95.7303 53.2721C95.7862 53.2169 95.8301 53.1507 95.8593 53.0777C95.8885 53.0048 95.9024 52.9265 95.9 52.848C95.909 52.7699 95.9017 52.6908 95.8788 52.6156C95.8558 52.5405 95.8176 52.4708 95.7666 52.4111C95.7155 52.3513 95.6527 52.3027 95.582 52.2684C95.5113 52.234 95.4343 52.2145 95.3558 52.2112C95.2773 52.2079 95.1989 52.2208 95.1256 52.2491C95.0523 52.2775 94.9856 52.3206 94.9297 52.3758C94.8738 52.4311 94.8298 52.4973 94.8007 52.5702C94.7715 52.6432 94.7576 52.7214 94.76 52.8Z" fill="#263238"/>
<path d="M97.684 52.4001L97.336 55.8121L95.58 55.1161L97.684 52.4001Z" fill="#9A4A4D"/>
<path d="M60.296 149.976L60.456 149.42C60.484 150.136 60.684 153.236 61.812 155.092C62.712 156.564 64.008 158.344 64.068 159.712C64.128 161.08 61.24 160.764 60.152 160.228C58.892 159.604 57.392 158.348 56.792 156.924C56.368 155.924 56.232 154.844 55.944 154.072C55.656 153.3 54.784 152.272 54.744 151.46C54.724 151.016 55.144 150.18 55.544 149.488C55.944 148.796 56.444 148.124 56.66 148.256C56.636 148.34 56.432 148.712 56.432 148.712C56.62 149.112 57.312 149.644 58.18 149.932C58.76 150.12 60.172 150.4 60.296 149.976Z" fill="#263238"/>
<path d="M34.456 139.34L34.856 139.216C34.456 139.808 32.904 142.652 32.716 144.816C32.564 146.536 32.552 148.736 31.788 149.872C31.024 151.008 28.884 149.04 28.332 147.964C27.684 146.716 27.224 144.812 27.584 143.312C27.84 142.256 28.384 141.312 28.596 140.512C28.808 139.712 28.732 138.376 29.18 137.712C29.428 137.34 30.264 136.912 31.008 136.608C31.692 136.324 32.544 136.044 32.64 136.28C32.572 136.332 32.184 136.508 32.184 136.508C32.104 136.94 32.34 137.784 32.868 138.532C33.2811 138.986 33.8458 139.273 34.456 139.34Z" fill="#263238"/>
<path d="M70 125.644C70.4 124.416 71.404 121.808 71.2 120.532C70.324 114.568 68.38 107.764 67.728 105.616C66.852 102.736 65.828 98.488 64.724 93.616C64.752 92.26 64.764 91.052 64.764 91.052L51.964 92.156C50.488 95.756 48.144 101.944 49.032 109.756C49.4426 113.402 49.6482 117.067 49.648 120.736C48.448 121.48 47.116 122.336 46.048 123.076C43.192 125.076 33.184 135.64 33.184 135.64L32.152 136.464L32.072 136.524V136.548C31.52 137.212 30.872 140.044 30.348 141.748C30 142.904 29.828 144.728 30.632 146.148C31.392 147.48 32.232 147.808 32.56 146.324C32.604 145.792 32.636 145.268 32.68 144.78C32.812 143.268 33.672 141.536 34.316 140.428C34.84 139.528 35.188 138.772 36.172 138.136C36.172 138.136 48.136 130.328 53.888 126.656C54.8361 126.066 55.6541 125.288 56.2923 124.372C56.9304 123.455 57.3754 122.418 57.6 121.324C58 119.252 59.42 114.152 59.904 111.584L62.704 122.252C62.068 123.284 60.884 126.952 60.184 131.452C59.248 137.452 57.036 146.624 57.036 146.624L56.472 148.72L56.444 148.816C56.396 149.676 57.552 152.344 58.156 154.036C58.556 155.172 59.5 156.744 60.98 157.4C62.384 158.02 63.264 157.776 62.64 156.392C62.373 155.935 62.1365 155.46 61.932 154.972C61.2906 153.584 60.854 152.11 60.636 150.596C60.5136 149.583 60.6512 148.557 61.036 147.612C61.036 147.612 67.876 132.212 70 125.644Z" fill="#FFA8A7"/>
<path d="M51.248 94.0599C51.248 94.0599 48.748 97.8239 48.244 101C47.38 106.408 48.56 115.044 48.56 115.044C48.56 115.044 50.224 114.076 50.46 112.244C50.46 112.244 51.148 113.896 52.408 114.728C53.988 115.78 56.408 116.376 59.468 115.452L59.896 111.58L60.5 114.84C62.4836 115.027 64.4838 114.764 66.352 114.072C69.34 112.928 70.004 109.624 70.004 109.624L64.828 94.0559C64.828 94.0559 65.12 96.6439 58.952 96.8839C52.784 97.1239 51.248 94.0599 51.248 94.0599Z" fill="#455A64"/>
<path d="M73.648 68.4519C70.656 75.4919 66.516 77.9879 64.632 82.5079C62.164 82.3399 58.736 78.2759 60.572 75.7319C62.668 74.8479 69.456 67.4639 69.848 64.3519C70.196 61.5879 71.684 57.2839 71.616 54.9839C71.5948 54.6018 71.4372 54.2399 71.172 53.9639C70.416 53.1639 70.412 52.4919 69.928 51.5919C69.548 50.8919 69.128 50.6279 69.252 50.4719C69.4072 50.3043 69.6201 50.2016 69.8479 50.1845C70.0757 50.1674 70.3016 50.2373 70.48 50.3799C70.8307 50.634 71.1444 50.9355 71.412 51.2759C71.2825 50.4175 71.0334 49.5813 70.672 48.7919C69.832 46.8959 70.036 45.9319 72.596 46.6039C74.196 47.0279 75.204 48.3639 75.444 52.2039C75.5539 53.8018 75.5632 55.4049 75.472 57.0039C75.192 59.9679 74.888 62.8039 74.524 65.2599C74.3705 66.3572 74.076 67.43 73.648 68.4519Z" fill="#FFA8A7"/>
<path d="M51.692 92.74L51.464 89.876L49.256 85.252C48.9307 83.5535 48.8526 81.8169 49.024 80.096C49.096 78.428 49.024 77.296 50.624 76.924C51.24 76.784 52.984 76.472 55.536 76.124L60.208 75.724C61.916 75.636 63.768 77.832 65.704 81.724C66.672 83.668 67.432 86.312 64.864 88.772C64.864 89.28 64.928 90.996 64.864 92.024C62.8396 93.0546 60.622 93.6507 58.3537 93.774C56.0853 93.8973 53.8163 93.5451 51.692 92.74Z" fill="#FBD57D"/>
<path d="M63.944 63.384V63.24C63.524 58.756 60.952 57.924 56.252 58.404C52.78 58.76 49.632 60.404 48.584 63.464C48.1967 64.6143 48.0797 65.8384 48.242 67.0413C48.4043 68.2442 48.8417 69.3935 49.52 70.4C50.956 72.528 53.384 73.716 56.816 73.396C61.288 73.92 64.364 67.864 63.944 63.384Z" fill="#263238"/>
<path d="M34.4 68.4001C33.596 67.7837 32.9491 66.986 32.512 66.0721C31.808 64.6041 31.484 62.3561 33.124 61.3521C33.3101 61.2325 33.5206 61.156 33.74 61.1281C34.468 61.0561 35.052 61.6681 35.62 62.1241C36.1711 62.5541 36.802 62.8707 37.4763 63.0554C38.1505 63.2401 38.8546 63.2893 39.548 63.2001C41.052 63.0081 42.396 62.1721 43.576 61.2241C43.9385 60.905 44.3421 60.636 44.776 60.4241C45.1346 60.2761 45.5164 60.1922 45.904 60.1761C47.1911 60.1125 48.4613 60.4908 49.504 61.2481C49.7008 61.3611 49.873 61.5125 50.0104 61.6931C50.1478 61.8738 50.2476 62.0802 50.304 62.3001C50.3273 62.4552 50.3044 62.6137 50.2383 62.756C50.1721 62.8982 50.0656 63.0179 49.932 63.1001C49.628 63.2721 49.232 63.1001 48.912 63.0641C48.1092 62.9507 47.2922 63.1234 46.604 63.5521C45.948 64.0001 45.536 64.7201 45.096 65.3801C43.704 67.4641 41.648 69.2721 39.172 69.6321C38.3346 69.7523 37.4817 69.7053 36.6627 69.4938C35.8436 69.2824 35.0745 68.9106 34.4 68.4001Z" fill="#263238"/>
<path d="M60.86 61.2559C61.78 61.6879 63.06 63.7759 63.384 68.3799C63.656 72.2799 62.488 73.3599 61.88 73.6959C61.272 74.0319 60.032 73.9759 58.828 73.8919L59.044 76.2279C59.044 76.2279 62.644 79.5079 59.964 80.1079C58.62 80.4119 56.82 79.7079 55.564 78.9079C54.76 78.3345 54.1524 77.5272 53.824 76.5959L53.376 71.5119C53.376 71.5119 52.74 72.2559 51.46 71.3319C50.4 70.5679 49.936 69.1559 50.628 68.3079C50.8086 68.106 51.0345 67.9498 51.2872 67.8523C51.5399 67.7547 51.8122 67.7185 52.0816 67.7466C52.351 67.7747 52.6099 67.8663 52.837 68.014C53.0641 68.1616 53.253 68.361 53.388 68.5959C53.388 68.5959 54.092 68.5959 54.668 67.2279C55.8461 67.2478 56.9974 66.8748 57.94 66.1679C58.7327 65.5882 59.4 64.8543 59.9018 64.0102C60.4036 63.166 60.7295 62.2292 60.86 61.2559Z" fill="#FFA8A7"/>
<path d="M58.24 67.6239C58.2622 67.7532 58.2328 67.8861 58.1579 67.9938C58.0831 68.1016 57.9689 68.1756 57.84 68.1999C57.7082 68.2147 57.5759 68.1774 57.4713 68.0959C57.3666 68.0145 57.298 67.8953 57.28 67.7639C57.2663 67.6981 57.2661 67.6302 57.2796 67.5643C57.2931 67.4985 57.32 67.4361 57.3585 67.381C57.3971 67.3259 57.4465 67.2793 57.5038 67.2441C57.561 67.2089 57.6249 67.1858 57.6915 67.1762C57.758 67.1666 57.8258 67.1707 57.8907 67.1884C57.9556 67.206 58.0161 67.2368 58.0687 67.2787C58.1212 67.3207 58.1646 67.373 58.1961 67.4323C58.2276 67.4917 58.2467 67.5569 58.252 67.6239H58.24Z" fill="#263238"/>
<g style="mix-blend-mode:multiply" opacity="0.5">
<path d="M59.152 70.824L60.724 71.172C60.7048 71.276 60.6652 71.3751 60.6075 71.4637C60.5497 71.5523 60.4749 71.6286 60.3875 71.6881C60.3001 71.7476 60.2018 71.7892 60.0982 71.8105C59.9946 71.8317 59.8878 71.8322 59.784 71.812C59.5712 71.7613 59.3863 71.63 59.2684 71.4457C59.1505 71.2614 59.1087 71.0385 59.152 70.824Z" fill="#F28F8F"/>
</g>
<path d="M62.524 65.6881L61.468 65.0961C61.5034 65.0265 61.5524 64.9647 61.6121 64.9143C61.6718 64.864 61.741 64.8262 61.8156 64.803C61.8902 64.7799 61.9687 64.772 62.0464 64.7797C62.1241 64.7875 62.1995 64.8107 62.268 64.8481C62.4112 64.9276 62.518 65.0596 62.5657 65.2163C62.6135 65.3731 62.5985 65.5422 62.524 65.6881Z" fill="#263238"/>
<path d="M57.4 65.968L56.312 66.508C56.2748 66.4392 56.2518 66.3636 56.2443 66.2857C56.2369 66.2078 56.2451 66.1292 56.2687 66.0546C56.2922 65.98 56.3304 65.9109 56.3812 65.8513C56.4319 65.7918 56.4941 65.743 56.564 65.708C56.7103 65.637 56.8782 65.6244 57.0334 65.6727C57.1887 65.721 57.3198 65.8266 57.4 65.968Z" fill="#263238"/>
<path d="M62.4 67.1278C62.41 67.2238 62.3915 67.3205 62.347 67.4061C62.3024 67.4916 62.2337 67.5622 62.1493 67.609C62.0649 67.6558 61.9687 67.6767 61.8725 67.6693C61.7764 67.6618 61.6845 67.6262 61.6084 67.5669C61.5323 67.5077 61.4753 67.4274 61.4444 67.336C61.4136 67.2446 61.4103 67.1461 61.435 67.0529C61.4597 66.9596 61.5112 66.8757 61.5832 66.8115C61.6552 66.7473 61.7445 66.7057 61.84 66.6918C61.972 66.676 62.1049 66.7129 62.2098 66.7946C62.3146 66.8762 62.383 66.996 62.4 67.1278Z" fill="#263238"/>
<g style="mix-blend-mode:multiply" opacity="0.5">
<path d="M60.012 67.0679L60.364 70.0079L61.872 69.3839L60.012 67.0679Z" fill="#F28F8F"/>
</g>
<g style="mix-blend-mode:multiply" opacity="0.5">
<path d="M58.828 73.892C57.56 73.844 54.916 73.344 54.428 72.364C54.6388 72.8592 54.9962 73.2779 55.452 73.564C56.284 74.148 58.908 74.652 58.908 74.652L58.828 73.892Z" fill="#F28F8F"/>
</g>
<path d="M49.548 61.4199L50.124 59.3159C50.2642 59.3467 50.3968 59.4056 50.5136 59.489C50.6305 59.5724 50.7293 59.6786 50.804 59.8012C50.8788 59.9238 50.9279 60.0602 50.9485 60.2023C50.9692 60.3444 50.9608 60.4892 50.924 60.6279C50.8408 60.9118 50.6513 61.1526 50.395 61.3001C50.1386 61.4477 49.8352 61.4906 49.548 61.4199Z" fill="#263238"/>
<path d="M49.364 61.5999L48.164 59.7839C48.2793 59.6992 48.4105 59.6387 48.5498 59.6061C48.689 59.5734 48.8335 59.5693 48.9743 59.594C49.1152 59.6187 49.2497 59.6716 49.3696 59.7496C49.4895 59.8276 49.5923 59.929 49.672 60.0479C49.8295 60.2967 49.8854 60.5965 49.8281 60.8854C49.7708 61.1743 49.6046 61.43 49.364 61.5999Z" fill="#263238"/>
<path d="M53.4 68.5919L53.592 70.6399C53.7751 70.6228 53.953 70.5699 54.1156 70.484C54.2782 70.3982 54.4223 70.2812 54.5397 70.1397C54.657 69.9982 54.7454 69.8349 54.7997 69.6592C54.854 69.4836 54.8731 69.2989 54.856 69.1159L54.68 67.2239L53.4 68.5919Z" fill="#263238"/>
<path d="M40.212 69.4159C43.204 76.4599 46.856 80.7519 49.256 85.2519C53.256 85.4399 53.552 79.2519 51.716 76.7079C51.716 76.7079 44.664 68.3879 44.012 65.3199C43.432 62.5919 42.176 58.2479 42.244 55.9479C42.262 55.565 42.42 55.202 42.688 54.9279C43.444 54.1279 43.444 53.4599 43.932 52.5599C44.308 51.8559 44.732 51.5959 44.608 51.4359C44.4507 51.2702 44.237 51.1693 44.0091 51.153C43.7811 51.1367 43.5553 51.2062 43.376 51.3479C43.0267 51.6005 42.7143 51.9008 42.448 52.2399C42.5753 51.3814 42.8231 50.5452 43.184 49.7559C44.024 47.8639 43.82 46.8959 41.264 47.5719C39.664 47.9719 38.656 49.3279 38.416 53.1719C38.3068 54.7792 38.3014 56.3919 38.4 57.9999C38.676 60.9639 38.98 63.8039 39.344 66.2559C39.4986 67.3417 39.7902 68.4035 40.212 69.4159Z" fill="#FFA8A7"/>
<path d="M60.5 114.732L59.896 111.748L60.516 106.06C61.8271 105.508 63.0613 104.788 64.188 103.92C63.4932 104.91 62.6453 105.784 61.676 106.508L60.296 111.4L60.5 114.732Z" fill="#37474F"/>
<path opacity="0.1" d="M54.132 87.4759C54.5108 88.1853 55.0863 88.7704 55.7895 89.1606C56.4927 89.5509 57.2936 89.7298 58.096 89.6759C58.871 89.6488 59.6251 89.4174 60.2819 89.005C60.9387 88.5927 61.4748 88.0141 61.836 87.3279C61.836 87.3279 61.724 90.3999 58.096 90.4079C54.468 90.4159 54.132 87.4759 54.132 87.4759Z" fill="black"/>
</svg>
