<svg width="16" height="16" viewBox="0 0 16 16" fill="none" xmlns="http://www.w3.org/2000/svg">
<path d="M8.00002 1.59998C7.15133 1.59998 6.3374 1.93712 5.73728 2.53723C5.13717 3.13735 4.80002 3.95128 4.80002 4.79998C4.80002 5.64867 5.13717 6.4626 5.73728 7.06272C6.3374 7.66283 7.15133 7.99998 8.00002 7.99998C8.84872 7.99998 9.66265 7.66283 10.2628 7.06272C10.8629 6.4626 11.2 5.64867 11.2 4.79998C11.2 3.95128 10.8629 3.13735 10.2628 2.53723C9.66265 1.93712 8.84872 1.59998 8.00002 1.59998ZM5.60002 4.79998C5.60002 4.16346 5.85288 3.55301 6.30297 3.10292C6.75306 2.65283 7.3635 2.39998 8.00002 2.39998C8.63654 2.39998 9.24699 2.65283 9.69708 3.10292C10.1472 3.55301 10.4 4.16346 10.4 4.79998C10.4 5.4365 10.1472 6.04695 9.69708 6.49703C9.24699 6.94712 8.63654 7.19998 8.00002 7.19998C7.3635 7.19998 6.75306 6.94712 6.30297 6.49703C5.85288 6.04695 5.60002 5.4365 5.60002 4.79998ZM4.00722 8.79998C3.79653 8.79913 3.58775 8.83989 3.39284 8.91991C3.19794 8.99993 3.02075 9.11764 2.87143 9.26629C2.72212 9.41494 2.60361 9.5916 2.52272 9.78614C2.44182 9.98068 2.40013 10.1893 2.40002 10.4C2.40002 11.7528 3.06642 12.7728 4.10802 13.4376C5.13362 14.0912 6.51602 14.4 8.00002 14.4C9.48402 14.4 10.8664 14.0912 11.892 13.4376C12.9336 12.7736 13.6 11.752 13.6 10.4C13.6 9.97563 13.4315 9.56866 13.1314 9.26861C12.8313 8.96855 12.4244 8.79998 12 8.79998H4.00722ZM3.20002 10.4C3.20002 9.95758 3.55842 9.59998 4.00722 9.59998H12C12.2122 9.59998 12.4157 9.68426 12.5657 9.83429C12.7157 9.98432 12.8 10.1878 12.8 10.4C12.8 11.4472 12.3024 12.2272 11.4616 12.7624C10.6056 13.3088 9.38802 13.6 8.00002 13.6C6.61202 13.6 5.39442 13.3088 4.53842 12.7624C3.69842 12.2264 3.20002 11.448 3.20002 10.4Z" fill="#969696"/>
</svg>
